<svg width="2058" height="372" viewBox="0 0 1029 186" fill="none" xmlns="http://www.w3.org/2000/svg"><rect width="1029" height="186" rx="80" fill="#6690F8" /><path d="M333.085 126.2C333.085 130.9 331.435 134.9 328.135 138.2C324.935 141.4 321.035 143 316.435 143H295.585C290.985 143 287.035 141.4 283.735 138.2C280.435 134.9 278.785 130.9 278.785 126.2V82.1C278.785 79 279.535 76.2 281.035 73.7C282.635 71.1 284.685 69.05 287.185 67.55C289.685 66.05 292.485 65.3 295.585 65.3H316.435C319.535 65.3 322.335 66.05 324.835 67.55C327.335 69.05 329.335 71.1 330.835 73.7C332.335 76.2 333.085 79 333.085 82.1V89.9C333.085 91.8 332.435 93.45 331.135 94.85C329.835 96.15 328.235 96.8 326.335 96.8H322.135C320.235 96.8 318.635 96.15 317.335 94.85C316.035 93.45 315.385 91.8 315.385 89.9V85.25C315.385 84.65 315.135 84.15 314.635 83.75C314.235 83.35 313.785 83.15 313.285 83.15H298.735C298.235 83.15 297.735 83.35 297.235 83.75C296.835 84.15 296.635 84.65 296.635 85.25V123.35C296.635 123.85 296.835 124.3 297.235 124.7C297.735 125.1 298.235 125.3 298.735 125.3H313.285C313.785 125.3 314.235 125.1 314.635 124.7C315.135 124.3 315.385 123.85 315.385 123.35V118.7C315.385 116.8 316.035 115.2 317.335 113.9C318.635 112.5 320.235 111.8 322.135 111.8H326.335C328.235 111.8 329.835 112.5 331.135 113.9C332.435 115.2 333.085 116.8 333.085 118.7V126.2ZM399.589 126.2C399.589 130.9 397.939 134.9 394.639 138.2C391.439 141.4 387.539 143 382.939 143H362.089C357.489 143 353.539 141.4 350.239 138.2C346.939 134.9 345.289 130.9 345.289 126.2V82.1C345.289 79 346.039 76.2 347.539 73.7C349.139 71.1 351.189 69.05 353.689 67.55C356.189 66.05 358.989 65.3 362.089 65.3H382.939C386.039 65.3 388.839 66.05 391.339 67.55C393.839 69.05 395.839 71.1 397.339 73.7C398.839 76.2 399.589 79 399.589 82.1V126.2ZM381.889 123.35V85.25C381.889 84.65 381.639 84.15 381.139 83.75C380.739 83.35 380.289 83.15 379.789 83.15H365.239C364.739 83.15 364.239 83.35 363.739 83.75C363.339 84.15 363.139 84.65 363.139 85.25V123.35C363.139 123.85 363.339 124.3 363.739 124.7C364.239 125.1 364.739 125.3 365.239 125.3H379.789C380.289 125.3 380.739 125.1 381.139 124.7C381.639 124.3 381.889 123.85 381.889 123.35ZM466.093 136.1C466.093 138 465.443 139.65 464.143 141.05C462.843 142.35 461.243 143 459.343 143H455.143C453.243 143 451.643 142.35 450.343 141.05C449.043 139.65 448.393 138 448.393 136.1V85.25C448.393 84.65 448.143 84.15 447.643 83.75C447.243 83.35 446.793 83.15 446.293 83.15H431.743C431.243 83.15 430.743 83.35 430.243 83.75C429.843 84.15 429.643 84.65 429.643 85.25V136.1C429.643 138 428.993 139.65 427.693 141.05C426.393 142.35 424.793 143 422.893 143H418.693C416.793 143 415.143 142.35 413.743 141.05C412.443 139.65 411.793 138 411.793 136.1V82.1C411.793 79 412.543 76.2 414.043 73.7C415.643 71.1 417.693 69.05 420.193 67.55C422.693 66.05 425.493 65.3 428.593 65.3H449.443C452.543 65.3 455.343 66.05 457.843 67.55C460.343 69.05 462.343 71.1 463.843 73.7C465.343 76.2 466.093 79 466.093 82.1V136.1ZM522.847 136.1C522.847 138 522.197 139.65 520.897 141.05C519.597 142.35 517.997 143 516.097 143H495.097C490.497 143 486.547 141.4 483.247 138.2C480.047 134.9 478.447 130.9 478.447 126.2V48.5C478.447 46.5 479.097 44.85 480.397 43.55C481.697 42.25 483.297 41.6 485.197 41.6H489.397C491.297 41.6 492.897 42.25 494.197 43.55C495.597 44.85 496.297 46.5 496.297 48.5V63.5C496.297 64.7 496.947 65.3 498.247 65.3H516.097C517.997 65.3 519.597 66 520.897 67.4C522.197 68.7 522.847 70.35 522.847 72.35V76.4C522.847 78.1 522.197 79.7 520.897 81.2C519.397 82.5 517.797 83.15 516.097 83.15H498.247C496.947 83.15 496.297 83.85 496.297 85.25V123.35C496.297 124.65 496.947 125.3 498.247 125.3H516.097C517.997 125.3 519.597 125.95 520.897 127.25C522.197 128.55 522.847 130.2 522.847 132.2V136.1ZM557.636 51.2C557.636 54.3 556.486 57 554.186 59.3C551.986 61.5 549.386 62.6 546.386 62.6C543.286 62.6 540.586 61.5 538.286 59.3C536.086 57 534.986 54.3 534.986 51.2C534.986 48.2 536.086 45.6 538.286 43.4C540.586 41.1 543.286 39.95 546.386 39.95C549.386 39.95 551.986 41.1 554.186 43.4C556.486 45.6 557.636 48.2 557.636 51.2ZM555.236 136.1C555.236 138 554.536 139.65 553.136 141.05C551.836 142.35 550.236 143 548.336 143H544.286C542.386 143 540.736 142.35 539.336 141.05C538.036 139.65 537.386 138 537.386 136.1V73.85C537.386 71.95 538.036 70.35 539.336 69.05C540.736 67.65 542.386 66.95 544.286 66.95H548.336C550.236 66.95 551.836 67.65 553.136 69.05C554.536 70.35 555.236 71.95 555.236 73.85V136.1ZM624.003 136.1C624.003 138 623.353 139.65 622.053 141.05C620.753 142.35 619.153 143 617.253 143H613.053C611.153 143 609.553 142.35 608.253 141.05C606.953 139.65 606.303 138 606.303 136.1V85.25C606.303 84.65 606.053 84.15 605.553 83.75C605.153 83.35 604.703 83.15 604.203 83.15H589.653C589.153 83.15 588.653 83.35 588.153 83.75C587.753 84.15 587.553 84.65 587.553 85.25V136.1C587.553 138 586.903 139.65 585.603 141.05C584.303 142.35 582.703 143 580.803 143H576.603C574.703 143 573.053 142.35 571.653 141.05C570.353 139.65 569.703 138 569.703 136.1V82.1C569.703 79 570.453 76.2 571.953 73.7C573.553 71.1 575.603 69.05 578.103 67.55C580.603 66.05 583.403 65.3 586.503 65.3H607.353C610.453 65.3 613.253 66.05 615.753 67.55C618.253 69.05 620.253 71.1 621.753 73.7C623.253 76.2 624.003 79 624.003 82.1V136.1ZM690.507 126.2C690.507 130.9 688.857 134.9 685.557 138.2C682.357 141.4 678.457 143 673.857 143H653.007C648.407 143 644.457 141.4 641.157 138.2C637.857 134.9 636.207 130.9 636.207 126.2V72.35C636.207 70.35 636.857 68.7 638.157 67.4C639.557 66 641.207 65.3 643.107 65.3H647.307C649.207 65.3 650.807 66 652.107 67.4C653.407 68.7 654.057 70.35 654.057 72.35V123.35C654.057 123.85 654.257 124.3 654.657 124.7C655.157 125.1 655.657 125.3 656.157 125.3H670.707C671.207 125.3 671.657 125.1 672.057 124.7C672.557 124.3 672.807 123.85 672.807 123.35V72.35C672.807 70.35 673.457 68.7 674.757 67.4C676.057 66 677.657 65.3 679.557 65.3H683.757C685.657 65.3 687.257 66 688.557 67.4C689.857 68.7 690.507 70.35 690.507 72.35V126.2ZM757.011 98.45C757.011 101.45 756.261 104.25 754.761 106.85C753.261 109.35 751.261 111.4 748.761 113C746.261 114.5 743.461 115.25 740.361 115.25H722.661C722.161 115.25 721.661 115.45 721.161 115.85C720.761 116.15 720.561 116.55 720.561 117.05V123.35C720.561 123.85 720.761 124.3 721.161 124.7C721.661 125.1 722.161 125.3 722.661 125.3H740.361C742.261 125.3 743.861 125.95 745.161 127.25C746.561 128.55 747.261 130.2 747.261 132.2V136.1C747.261 138 746.561 139.65 745.161 141.05C743.861 142.35 742.261 143 740.361 143H719.511C714.911 143 710.961 141.4 707.661 138.2C704.361 134.9 702.711 130.9 702.711 126.2V82.1C702.711 79 703.461 76.2 704.961 73.7C706.561 71.2 708.611 69.2 711.111 67.7C713.611 66.1 716.411 65.3 719.511 65.3H740.361C743.461 65.3 746.261 66.1 748.761 67.7C751.261 69.2 753.261 71.2 754.761 73.7C756.261 76.2 757.011 79 757.011 82.1V98.45ZM739.311 95.45V85.25C739.311 84.65 739.061 84.15 738.561 83.75C738.161 83.35 737.711 83.15 737.211 83.15H722.661C722.161 83.15 721.661 83.35 721.161 83.75C720.761 84.15 720.561 84.65 720.561 85.25V95.45C720.561 95.85 720.761 96.25 721.161 96.65C721.661 97.05 722.161 97.25 722.661 97.25H737.211C737.711 97.25 738.161 97.05 738.561 96.65C739.061 96.25 739.311 95.85 739.311 95.45Z" fill="white" /></svg>